<svg id="icon" xmlns="http://www.w3.org/2000/svg" width="26.02" height="26.02" viewBox="0 0 26.02 26.02">
  <g id="c142_x">
    <path id="Path_1326" data-name="Path 1326" d="M13.007,0A13.01,13.01,0,1,0,26.02,13.01,13.009,13.009,0,0,0,13.007,0ZM18.6,16.533,16.529,18.6a47.771,47.771,0,0,0-3.523-3.517A48.452,48.452,0,0,0,9.487,18.6L7.414,16.533a40.6,40.6,0,0,0,3.521-3.518A40.05,40.05,0,0,0,7.414,9.491L9.487,7.417s3.306,3.519,3.52,3.519,3.523-3.519,3.523-3.519L18.6,9.491a47.641,47.641,0,0,0-3.522,3.524C15.08,13.248,18.6,16.533,18.6,16.533Z" fill="red"/>
  </g>
</svg>
